# xmcd CD database file
#
# Track frame offsets:
#	150
#	19382
#	35000
#	54557
#
# Disc length: 947 seconds
#
# Revision: 4
# Processed by: cddbd v1.5.1PL0 Copyright (c) Steve Scherf et al.
# Submitted via: CDex 1.51
#
DISCID=3103b104
DTITLE=ホフディラン - 恋はいつも幻のように
DYEAR=1900
DGENRE=JPop
TTITLE0=恋はいつも幻のように
TTITLE1=夢にでてきて
TTITLE2=サマー・タイム・ポップ
TTITLE3=やよいさん
EXTD=
EXTT0=
EXTT1=
EXTT2=
EXTT3=
PLAYORDER=
